<?xml version="1.0" standalone="no"?>
<!DOCTYPE svg PUBLIC "-//W3C//DTD SVG 20010904//EN"
 "http://www.w3.org/TR/2001/REC-SVG-20010904/DTD/svg10.dtd">
<svg version="1.0" xmlns="http://www.w3.org/2000/svg"
 width="164.000000pt" height="50.000000pt" viewBox="0 0 180.000000 180.000000"
 preserveAspectRatio="xMidYMid meet">

<g transform="translate(0.000000,180.000000) scale(0.100000,-0.100000)"
fill="#FFFFFF" stroke="none">
<path d="M102 1779 c-26 -13 -55 -39 -70 -62 l-27 -41 0 -776 0 -776 27 -41
c16 -24 44 -49 70 -62 44 -21 50 -21 799 -21 712 0 756 1 795 19 47 22 80 59
95 110 7 24 9 285 7 792 l-3 755 -27 41 c-16 24 -44 49 -70 62 -44 21 -50 21
-799 21 -751 0 -754 0 -797 -21z m768 -829 c0 -49 4 -90 8 -90 5 0 18 10 30
23 17 18 19 26 10 35 -9 9 -2 12 33 11 l44 0 -24 -17 c-72 -49 -71 -45 -18
-97 26 -26 47 -49 47 -51 0 -2 -10 -4 -22 -4 -13 0 -41 18 -65 42 l-43 42 0
-32 c0 -22 5 -32 16 -32 8 0 12 -4 9 -10 -3 -5 -24 -10 -46 -10 -21 0 -39 5
-39 10 0 6 5 10 10 10 6 0 10 43 10 110 0 93 -2 110 -17 119 -15 8 -16 10 -3
15 8 2 22 7 30 9 8 3 18 6 23 6 4 1 7 -39 7 -89z m411 -41 c-3 -102 -1 -120
13 -125 31 -12 16 -24 -29 -24 -42 0 -61 13 -33 22 9 3 13 34 12 108 0 87 -3
105 -18 116 -17 12 -15 14 15 22 19 5 36 7 39 5 3 -3 3 -58 1 -124z m-1135 73
c-6 -17 3 -51 34 -127 l12 -30 24 62 c22 59 23 93 2 93 -5 0 -6 5 -3 10 8 13
85 13 85 1 0 -5 -5 -11 -12 -13 -8 -3 -2 -27 17 -76 15 -40 30 -71 32 -69 2 2
14 33 28 67 17 43 22 67 15 74 -18 18 -11 26 25 26 38 0 42 -5 22 -29 -8 -9
-31 -60 -53 -113 -21 -54 -42 -98 -47 -98 -6 0 -25 39 -65 134 -7 16 -14 6
-39 -54 -17 -41 -36 -76 -41 -78 -5 -1 -29 45 -52 103 -23 58 -46 108 -51 111
-21 13 -6 24 32 24 35 0 40 -3 35 -18z m993 8 c41 -11 51 -24 51 -66 0 -38
-23 -60 -72 -69 -34 -6 -38 -10 -38 -37 0 -21 6 -31 20 -35 37 -10 20 -23 -30
-23 -27 0 -50 5 -50 10 0 6 5 10 10 10 6 0 10 40 10 100 0 60 -4 100 -10 100
-5 0 -10 5 -10 10 0 13 75 13 119 0z m-526 -81 c22 -28 22 -90 -1 -119 -10
-13 -33 -23 -59 -27 -35 -5 -45 -2 -67 20 -39 39 -36 97 6 132 26 22 39 26 67
21 20 -3 44 -15 54 -27z m174 15 c6 -17 -15 -37 -29 -27 -19 11 -38 -21 -38
-64 0 -36 4 -46 20 -50 11 -3 17 -9 14 -14 -7 -12 -94 -11 -94 1 0 6 5 10 10
10 6 0 10 26 10 59 0 46 -4 60 -17 65 -15 6 -15 8 -3 16 20 13 60 12 60 -1 0
-5 10 -3 22 5 28 20 37 20 45 0z m667 -5 c22 -18 26 -28 26 -75 0 -30 5 -54
10 -54 6 0 10 -4 10 -9 0 -15 -41 -24 -52 -13 -7 7 -16 7 -28 0 -24 -15 -67
-2 -75 23 -9 27 7 43 55 58 41 12 50 27 28 49 -17 17 -48 15 -48 -3 0 -8 -9
-15 -20 -15 -25 0 -26 12 -2 32 36 32 61 34 96 7z m152 7 c53 35 94 -6 94 -96
0 -28 5 -50 10 -50 6 0 10 -4 10 -10 0 -5 -18 -10 -40 -10 -22 0 -40 5 -40 10
0 6 5 10 10 10 7 0 10 22 8 56 -3 64 -23 88 -55 68 -25 -15 -31 -112 -9 -120
31 -12 15 -24 -29 -24 -44 0 -60 12 -30 24 23 8 21 102 -2 115 -12 6 -15 13
-8 19 16 16 50 19 53 5 3 -9 9 -9 28 3z" fill="#00A8C6"/>
<path d="M1080 929 l0 -50 33 3 c28 3 32 7 35 34 3 35 -18 64 -49 64 -16 0
-19 -7 -19 -51z"/>
<path d="M516 898 c-31 -43 -9 -118 34 -118 41 0 55 85 20 120 -26 26 -35 25
-54 -2z"/>
<path d="M1394 826 c-14 -11 -16 -18 -8 -26 18 -18 49 -7 52 18 4 26 -15 29
-44 8z"/>
</g>
</svg>
