<?xml version="1.0" standalone="no"?>
<!DOCTYPE svg PUBLIC "-//W3C//DTD SVG 20010904//EN"
 "http://www.w3.org/TR/2001/REC-SVG-20010904/DTD/svg10.dtd">
<svg version="1.0" xmlns="http://www.w3.org/2000/svg"
 width="512.000000pt" height="512.000000pt" viewBox="0 0 512.000000 512.000000"
 preserveAspectRatio="xMidYMid meet">

<g transform="translate(0.000000,512.000000) scale(0.100000,-0.100000)"
fill="#000000" stroke="none">
<path d="M415 5110 c-183 -38 -330 -170 -391 -350 -18 -53 -19 -134 -19 -2200
0 -2066 1 -2147 19 -2200 52 -154 168 -274 322 -332 l59 -23 2155 0 2155 0 59
23 c154 58 270 178 322 332 18 53 19 134 19 2200 0 2066 -1 2147 -19 2200 -52
154 -168 274 -322 332 l-59 23 -2130 1 c-1172 1 -2148 -2 -2170 -6z m2063
-2418 c1 -141 6 -252 11 -250 5 2 45 38 89 80 l81 77 -34 7 c-28 5 -35 11 -35
30 0 24 0 24 115 24 115 0 115 0 115 -24 0 -19 -7 -25 -35 -30 -24 -5 -61 -30
-115 -77 -44 -39 -80 -74 -80 -77 0 -16 213 -232 229 -232 24 0 30 -8 24 -31
-5 -17 -14 -19 -77 -19 l-71 0 -72 83 c-90 103 -141 152 -149 144 -3 -3 -3
-42 1 -86 7 -80 7 -81 39 -89 21 -6 32 -15 34 -30 3 -22 1 -22 -122 -22 -125
0 -126 0 -126 23 0 17 8 25 33 32 l32 10 0 310 0 310 -40 5 c-30 4 -41 10 -43
25 -2 17 8 24 70 42 40 11 84 20 98 20 l25 -2 3 -253z m1176 -102 l1 -355 35
-11 c23 -8 36 -19 38 -33 3 -20 0 -21 -126 -21 -110 0 -131 2 -136 16 -9 23
-1 31 39 38 l35 7 -2 312 -3 312 -40 5 c-31 4 -41 10 -43 25 -2 18 8 24 75 42
43 12 89 21 102 20 l24 -2 1 -355z m-3214 220 c0 -12 -11 -25 -29 -32 l-29
-13 78 -204 c44 -112 81 -206 84 -209 3 -2 10 8 16 24 6 16 36 93 66 171 29
78 54 149 54 157 0 33 -24 67 -52 73 -21 4 -28 11 -28 29 l0 24 131 0 c128 0
130 0 127 -22 -2 -14 -14 -25 -33 -31 -16 -5 -31 -11 -33 -12 -2 -2 156 -417
162 -422 3 -3 156 410 156 421 0 3 -16 8 -35 12 -28 5 -35 11 -35 30 0 24 1
24 104 24 96 0 104 -2 109 -20 4 -16 -2 -24 -26 -34 -30 -12 -39 -32 -152
-310 l-120 -296 -30 2 c-28 3 -32 9 -114 216 -47 117 -88 209 -92 205 -5 -5
-46 -100 -92 -213 -81 -199 -84 -205 -112 -205 -28 0 -31 5 -149 297 -112 279
-122 298 -148 303 -21 5 -28 12 -28 31 l0 24 125 0 c118 0 125 -1 125 -20z
m2826 5 c133 -39 175 -195 82 -301 -47 -53 -101 -77 -190 -82 l-78 -5 0 -86
c0 -47 4 -91 8 -97 4 -6 26 -15 50 -19 36 -6 42 -10 42 -31 l0 -24 -139 0
c-131 0 -139 1 -144 21 -4 15 1 22 19 30 14 5 29 9 33 9 17 0 28 394 15 493
-6 43 -9 47 -40 53 -27 5 -34 11 -34 30 l0 24 163 0 c115 0 178 -4 213 -15z
m-1630 -160 c99 -29 157 -114 158 -230 2 -163 -118 -278 -272 -261 -30 4 -70
15 -90 25 -188 97 -164 392 38 461 67 23 101 24 166 5z m2474 -10 c34 -18 66
-54 79 -88 6 -16 11 -91 11 -167 l0 -138 41 -7 c33 -6 40 -10 37 -28 -2 -15
-18 -25 -58 -39 -67 -23 -98 -17 -113 21 l-11 29 -37 -30 c-49 -40 -102 -46
-162 -20 -74 33 -108 108 -71 160 20 30 70 54 177 86 l87 27 0 39 c0 58 -40
100 -103 107 -43 5 -47 4 -57 -21 -5 -15 -10 -41 -10 -57 0 -27 -3 -29 -35
-29 -34 0 -75 27 -75 50 0 24 69 82 125 105 64 27 123 27 175 0z m600 15 c43
-12 93 -62 109 -109 6 -19 11 -93 11 -165 0 -72 4 -137 9 -144 4 -7 21 -16 37
-21 19 -5 29 -14 29 -27 0 -18 -9 -19 -122 -22 l-123 -3 0 24 c0 19 7 26 29
30 29 6 29 7 36 91 9 100 0 191 -22 224 -34 54 -116 59 -177 11 -25 -20 -26
-24 -26 -132 0 -161 5 -183 44 -194 21 -6 32 -16 34 -31 3 -22 2 -22 -128 -22
-130 0 -131 0 -128 22 2 15 13 25 34 31 39 11 44 36 43 182 -2 139 -7 159 -44
165 -24 4 -30 10 -30 30 0 22 7 26 77 43 95 23 110 20 101 -24 l-6 -32 36 27
c37 28 98 55 127 56 8 0 31 -5 50 -10z m-2662 -47 l3 -42 43 44 c36 38 49 45
81 45 67 0 94 -44 56 -91 -20 -25 -80 -31 -105 -10 -14 12 -43 -13 -65 -56
-12 -23 -15 -189 -5 -241 5 -27 12 -32 48 -37 53 -9 55 -11 49 -35 -5 -19 -14
-20 -144 -20 l-139 0 0 24 c0 19 7 25 34 30 l34 7 4 102 c1 57 1 131 0 165
l-4 62 -39 10 c-28 8 -39 16 -39 30 0 14 13 22 58 35 31 9 62 18 67 20 6 2 21
3 35 2 22 -2 25 -7 28 -44z"/>
<path d="M3080 2640 l0 -140 26 -6 c36 -9 94 2 124 24 52 39 62 152 17 208
-26 33 -75 54 -127 54 l-40 0 0 -140z"/>
<path d="M1486 2589 c-45 -35 -60 -76 -60 -160 1 -125 58 -209 143 -209 117 0
153 244 52 351 -45 46 -91 52 -135 18z"/>
<path d="M4007 2375 c-26 -7 -54 -19 -62 -25 -24 -20 -18 -66 11 -89 32 -25
66 -27 105 -4 27 16 29 22 29 75 0 66 0 66 -83 43z"/>
</g>
</svg>
